<svg xmlns:inkscape="http://www.inkscape.org/namespaces/inkscape" xmlns:sodipodi="http://sodipodi.sourceforge.net/DTD/sodipodi-0.dtd" xmlns="http://www.w3.org/2000/svg" xmlns:svg="http://www.w3.org/2000/svg" width="210mm" height="297mm" viewBox="0 0 210 297" version="1.1" id="svg1" xml:space="preserve" inkscape:version="1.3.2 (091e20e, 2023-11-25, custom)" sodipodi:docname="ACETS_FOND_NOIR.svg"><defs id="defs1"/><g inkscape:label="Calque 1" inkscape:groupmode="layer" id="layer1"><g id="g1" transform="matrix(0.26458333,0,0,0.26458333,26.578125,72.380918)"><g id="g19"><path class="st0" d="m 161.95,306.1 h -27.97 l -3.89,13.16 h -25.16 l 29.97,-79.74 h 26.88 l 29.96,79.74 h -25.8 z m -5.11,-17.24 -8.8,-28.67 -8.71,28.67 z" id="path1" style="fill:#ffffff"/><path class="st0" d="m 250.76,286.63 21.59,6.53 c -1.45,6.06 -3.74,11.11 -6.85,15.18 -3.12,4.06 -6.99,7.13 -11.61,9.19 -4.63,2.07 -10.51,3.1 -17.65,3.1 -8.67,0 -15.75,-1.26 -21.24,-3.78 -5.49,-2.52 -10.23,-6.95 -14.22,-13.29 -3.99,-6.34 -5.98,-14.46 -5.98,-24.35 0,-13.19 3.51,-23.33 10.52,-30.41 7.02,-7.08 16.94,-10.63 29.78,-10.63 10.04,0 17.94,2.03 23.69,6.09 5.74,4.06 10.02,10.3 12.81,18.71 l -21.76,4.84 c -0.76,-2.43 -1.56,-4.21 -2.39,-5.33 -1.38,-1.89 -3.06,-3.34 -5.06,-4.35 -1.99,-1.02 -4.22,-1.52 -6.69,-1.52 -5.58,0 -9.86,2.25 -12.84,6.74 -2.25,3.33 -3.37,8.57 -3.37,15.7 0,8.84 1.34,14.9 4.03,18.17 2.68,3.28 6.45,4.92 11.31,4.92 4.71,0 8.28,-1.32 10.69,-3.97 2.4,-2.66 4.15,-6.5 5.24,-11.54 z" id="path2" style="fill:#ffffff"/><path class="st1" d="m 284.38,239.52 h 66.03 v 17.03 h -41.34 v 12.67 h 38.35 v 16.26 h -38.35 v 15.72 h 42.54 v 18.06 h -67.23 z" id="path3"/><path class="st1" d="m 359.39,239.52 h 74.9 v 19.69 h -25.13 v 60.05 h -24.64 v -60.05 h -25.13 z" id="path4"/><path class="st1" d="m 441.26,292.88 23.44,-1.47 c 0.51,3.81 1.54,6.71 3.1,8.7 2.54,3.23 6.16,4.84 10.88,4.84 3.52,0 6.23,-0.82 8.13,-2.47 1.91,-1.65 2.86,-3.56 2.86,-5.74 0,-2.07 -0.91,-3.92 -2.72,-5.55 -1.81,-1.63 -6.02,-3.17 -12.62,-4.62 -10.81,-2.43 -18.51,-5.66 -23.12,-9.68 -4.64,-4.03 -6.96,-9.16 -6.96,-15.39 0,-4.1 1.19,-7.97 3.56,-11.61 2.37,-3.64 5.94,-6.51 10.71,-8.59 4.77,-2.09 11.31,-3.13 19.61,-3.13 10.19,0 17.96,1.9 23.31,5.69 5.35,3.79 8.53,9.82 9.54,18.08 l -23.23,1.36 c -0.62,-3.59 -1.91,-6.2 -3.89,-7.83 -1.98,-1.63 -4.7,-2.45 -8.18,-2.45 -2.86,0 -5.02,0.61 -6.47,1.82 -1.45,1.21 -2.18,2.69 -2.18,4.43 0,1.27 0.6,2.41 1.79,3.43 1.16,1.05 3.92,2.03 8.27,2.94 10.77,2.32 18.48,4.67 23.15,7.05 4.66,2.38 8.05,5.32 10.17,8.84 2.12,3.52 3.18,7.45 3.18,11.8 0,5.11 -1.41,9.83 -4.24,14.14 -2.83,4.32 -6.78,7.59 -11.86,9.82 -5.08,2.23 -11.48,3.34 -19.2,3.34 -13.56,0 -22.95,-2.61 -28.18,-7.83 -5.23,-5.22 -8.17,-11.87 -8.85,-19.92 z" id="path5"/><g id="g18" style="fill:#ffffff"><path class="st0" d="m 106.84,361.17 -3.01,7.1 H 98.3 l 13.88,-31.45 h 5.44 l 13.75,31.45 h -5.66 l -3.01,-7.1 z m 7.9,-18.68 -5.93,13.97 h 11.86 z" id="path6" style="fill:#ffffff"/><path class="st0" d="m 141.92,368.27 -12.53,-31.45 h 5.71 l 9.7,25.56 9.79,-25.56 h 5.53 l -12.71,31.45 z" id="path7" style="fill:#ffffff"/><path class="st0" d="m 164.43,368.27 v -31.45 h 5.3 v 31.45 z" id="path8" style="fill:#ffffff"/><path class="st0" d="m 208.77,352.55 c 0,8.98 -7.28,15.95 -16.67,15.95 -9.39,0 -16.67,-6.96 -16.67,-15.95 0,-9.03 7.28,-15.86 16.67,-15.86 9.39,0 16.67,6.87 16.67,15.86 z m -27.94,0 c 0,6.24 5.17,11.19 11.32,11.19 6.15,0 11.19,-4.94 11.19,-11.19 0,-6.25 -5.03,-11.1 -11.19,-11.1 -6.2,0 -11.32,4.85 -11.32,11.1 z" id="path9" style="fill:#ffffff"/><path class="st0" d="m 236.54,368.27 -16.76,-22.55 v 22.55 h -5.3 v -31.45 h 5.21 l 16.85,22.6 v -22.6 h 5.21 v 31.45 z" id="path10" style="fill:#ffffff"/><path class="st0" d="m 287.62,341.54 -3.1,3.86 c -2.29,-2.47 -5.57,-4 -8.76,-4 -6.29,0 -11.23,4.85 -11.23,11.05 0,6.2 4.94,11.1 11.23,11.1 3.14,0 6.38,-1.44 8.76,-3.73 l 3.14,3.5 c -3.19,3.14 -7.73,5.17 -12.17,5.17 -9.21,0 -16.35,-6.96 -16.35,-15.99 0,-8.94 7.23,-15.81 16.53,-15.81 4.45,0 8.89,1.84 11.95,4.85 z" id="path11" style="fill:#ffffff"/><path class="st0" d="m 297.33,361.17 -3.01,7.1 h -5.53 l 13.88,-31.45 h 5.44 l 13.75,31.45 h -5.66 l -3.01,-7.1 z m 7.9,-18.68 -5.93,13.97 h 11.86 z" id="path12" style="fill:#ffffff"/><path class="st0" d="m 340.28,358.75 c -0.45,0.04 -0.94,0.04 -1.44,0.04 h -7.46 v 9.48 h -5.3 v -31.45 h 12.76 c 8.04,0 12.67,3.91 12.67,10.74 0,5.03 -2.34,8.58 -6.51,10.2 l 7.05,10.51 h -6.02 z m -1.44,-4.72 c 4.85,0 7.64,-2.07 7.64,-6.33 0,-4.13 -2.79,-6.11 -7.64,-6.11 h -7.46 v 12.44 z" id="path13" style="fill:#ffffff"/><path class="st0" d="m 384.75,352.82 v 11.59 c -3.19,2.43 -7.91,4.09 -12.22,4.09 -9.3,0 -16.53,-6.96 -16.53,-15.95 0,-8.99 7.32,-15.86 16.85,-15.86 4.49,0 8.98,1.71 12.08,4.4 l -3.01,3.91 c -2.43,-2.25 -5.79,-3.59 -9.07,-3.59 -6.42,0 -11.46,4.9 -11.46,11.14 0,6.29 5.08,11.19 11.5,11.19 2.34,0 4.99,-0.81 7.23,-2.16 v -8.76 z" id="path14" style="fill:#ffffff"/><path class="st0" d="m 423.03,352.55 c 0,8.98 -7.28,15.95 -16.67,15.95 -9.39,0 -16.67,-6.96 -16.67,-15.95 0,-9.03 7.28,-15.86 16.67,-15.86 9.39,0 16.67,6.87 16.67,15.86 z m -27.94,0 c 0,6.24 5.17,11.19 11.32,11.19 6.15,0 11.19,-4.94 11.19,-11.19 0,-6.25 -5.03,-11.1 -11.19,-11.1 -6.2,0 -11.32,4.85 -11.32,11.1 z" id="path15" style="fill:#ffffff"/><path class="st0" d="m 445.67,341.59 v 8.49 h 15.36 v 4.76 h -15.36 v 8.67 h 17.7 v 4.76 h -23 v -31.45 h 22.46 v 4.76 h -17.16 z m 7.6,-8.18 h -4.58 l 4.76,-6.65 5.3,2.25 z" id="path16" style="fill:#ffffff"/><path class="st0" d="m 481.39,341.59 v 26.68 h -5.3 v -26.68 h -9.93 v -4.76 h 25.2 v 4.76 z" id="path17" style="fill:#ffffff"/><path class="st0" d="m 517.29,339.83 -2.2,4.67 c -3.41,-2.07 -6.83,-2.92 -9.21,-2.92 -3.1,0 -5.12,1.17 -5.12,3.28 0,6.87 16.98,3.19 16.94,14.51 0,5.62 -4.94,9.07 -11.86,9.07 -4.94,0 -9.61,-2.02 -12.85,-4.99 l 2.29,-4.58 c 3.23,2.96 7.28,4.58 10.65,4.58 3.68,0 5.88,-1.39 5.88,-3.82 0,-7.01 -16.98,-3.1 -16.98,-14.29 0,-5.39 4.63,-8.76 11.46,-8.76 4.08,0.02 8.08,1.32 11,3.25 z" id="path18" style="fill:#ffffff"/></g></g><g id="g27"><linearGradient id="SVGID_1_" gradientUnits="userSpaceOnUse" x1="41.154499" y1="286.7533" x2="548.51581" y2="372.07419"><stop offset="0.0973" style="stop-color:#EA4047" id="stop19"/><stop offset="0.2054" style="stop-color:#a51b21;stop-opacity:1;" id="stop20"/><stop offset="0.33520001" style="stop-color:#80282e;stop-opacity:1;" id="stop21"/><stop offset="0.4409" style="stop-color:#6a2528;stop-opacity:1;" id="stop22"/><stop offset="0.57160002" style="stop-color:#571e21;stop-opacity:1;" id="stop23"/><stop offset="0.80070001" style="stop-color:#441819;stop-opacity:1;" id="stop24"/><stop offset="0.88709998" style="stop-color:#311115;stop-opacity:0.94146341;" id="stop25"/><stop offset="0.9425" style="stop-color:#1e0b0b;stop-opacity:0.86341465;" id="stop26"/><stop offset="1" style="stop-color:#000000;stop-opacity:0.80000001;" id="stop27"/></linearGradient><path class="st2" d="m 536.39,345.4 0.6,0.44 0.43,0.34 0.79,0.65 c 0.51,0.43 0.99,0.86 1.46,1.31 0.94,0.89 1.84,1.84 2.7,2.86 1.72,2.05 3.33,4.41 4.58,7.33 1.23,2.89 2.03,6.45 1.76,10.1 -0.23,3.65 -1.52,7.09 -3.16,9.75 -1.64,2.7 -3.57,4.74 -5.48,6.47 -1.93,1.7 -3.88,3.1 -5.81,4.3 -3.88,2.4 -7.72,4.16 -11.54,5.68 -7.63,3 -15.19,5.04 -22.72,6.76 -7.53,1.71 -15.05,3.05 -22.55,4.19 -15.01,2.27 -29.97,3.76 -44.93,4.91 -14.95,1.13 -29.89,1.89 -44.81,2.42 -29.85,1.04 -59.65,1.2 -89.43,0.91 l -22.33,-0.31 c -7.46,-0.11 -14.92,-0.25 -22.37,-0.5 -14.91,-0.47 -29.83,-1.21 -44.72,-2.39 -7.45,-0.57 -14.89,-1.27 -22.32,-2.08 -7.43,-0.8 -14.85,-1.75 -22.26,-2.86 -14.8,-2.22 -29.55,-5.02 -44.06,-8.97 -14.48,-3.99 -28.83,-8.99 -42.1,-16.47 -6.61,-3.75 -12.93,-8.17 -18.46,-13.56 -5.51,-5.37 -10.15,-11.83 -12.99,-19.11 -2.87,-7.26 -3.78,-15.2 -3.07,-22.83 0.7,-7.66 2.86,-15.05 5.79,-22 2.93,-6.97 6.62,-13.55 10.72,-19.82 4.1,-6.27 8.62,-12.24 13.39,-17.98 9.56,-11.47 20.1,-22.03 31.14,-32 11.07,-9.93 22.6,-19.35 34.69,-27.99 -11.87,8.94 -23.15,18.63 -33.93,28.81 -10.76,10.21 -20.99,20.99 -30.17,32.58 -4.58,5.8 -8.9,11.81 -12.77,18.07 -3.87,6.26 -7.31,12.78 -9.97,19.58 -2.67,6.79 -4.53,13.89 -5,21.05 -0.49,7.15 0.55,14.35 3.31,20.86 2.74,6.52 7.09,12.3 12.32,17.16 5.25,4.86 11.3,8.89 17.68,12.3 12.82,6.81 26.87,11.34 41.09,14.88 14.26,3.5 28.81,5.9 43.44,7.72 7.31,0.91 14.65,1.66 22.01,2.27 7.35,0.63 14.72,1.13 22.1,1.51 14.75,0.8 29.53,1.16 44.32,1.26 7.39,0.06 14.79,0.01 22.19,-0.06 l 22.24,-0.47 c 29.64,-0.76 59.26,-1.96 88.75,-4.04 14.74,-1.04 29.45,-2.32 44.08,-3.95 14.62,-1.64 29.18,-3.62 43.47,-6.3 7.14,-1.35 14.21,-2.87 21.11,-4.7 6.88,-1.82 13.63,-3.95 19.74,-6.61 3.04,-1.33 5.91,-2.81 8.29,-4.42 2.38,-1.56 4.2,-3.42 4.69,-4.47 0.27,-0.52 0.23,-0.69 0.2,-0.76 -0.03,-0.07 -0.05,-0.23 -0.3,-0.74 -0.25,-0.49 -0.74,-1.23 -1.45,-1.99 -0.35,-0.38 -0.75,-0.77 -1.17,-1.14 -0.21,-0.18 -0.43,-0.36 -0.64,-0.52 l -0.3,-0.22 -0.12,-0.09 -0.04,-0.02 0.08,0.06 z" id="path27"/></g><path class="st1" d="m 151.45,185.43 c -1.55,-9.23 -2.09,-11.9 -3.14,-17.43 -0.45,-2.37 -1.48,-2.52 -2.71,-2.64 -4.4,-0.44 -9.52,-0.29 -15.85,-0.5 -0.72,-2.78 -0.08,-0.29 -0.91,-3.42 14.67,0.12 29.34,0.29 44.01,0.46 0.42,0 -0.34,-0.02 0.48,0.01 0.34,1.75 0.24,1.35 0.69,3.54 -5.91,0.16 -12.47,0.05 -18.89,0.06 4.02,12.09 5.99,13.3 9.48,16.71 0.46,0.45 0.94,0.88 1.47,1.24 2.74,1.83 4.92,2.07 6.92,2.17 11.06,0.54 1.69,0.28 12.77,0.49 1.64,0.03 3.28,-0.37 4.92,-0.54 0.69,-0.34 1.45,-0.68 2.26,-1.03 9.25,-3.91 23.76,-6.66 39.63,-2.8 12.63,3.07 28.56,3.39 49.32,2.86 29.23,-0.44 20.11,-0.18 53.2,-1.04 5.3,3.95 1.84,1.3 8.34,6.37 -62,1.69 -31.03,0.74 -72.23,1.99 -6.26,0.06 -19.07,-0.38 -27.7,-0.61 4.57,3.16 12.31,12.62 8.17,17.6 -4.99,5.99 -17.63,8.23 -25.69,5.73 -9.15,-2.84 -11.77,-5.28 -20.62,-8.76 -11.39,-4.48 -28.98,-9.31 -33,-9.53 -29.73,-1.63 -40.19,-2.37 -72.06,-3.68 -34.42,-1.87 -39.54,-2.5 -48.28,-2.91 l -6.69,-5.09 c 1.34,0.08 -2.76,-0.03 12.72,0.04 38.98,0.51 28.17,0.46 61.65,0.84 8.58,-0.04 17.17,-0.01 25.75,-0.04 1.24,-0.01 4.3,0.07 5.99,-0.09 z" id="path28"/><g id="g34"><path class="st3" d="m 208.01,222.14 v 0 c 14.94,-9.49 39.16,-9.49 54.1,0 l 0.24,0.15" id="path29"/><rect x="265.26999" y="217.11" transform="matrix(-0.8436,-0.537,0.537,-0.8436,370.9373,558.1082)" class="st4" width="2.95" height="15.86" id="rect29"/><rect x="262.04001" y="215.05" transform="matrix(-0.8436,-0.537,0.537,-0.8436,366.0924,552.5901)" class="st4" width="2.95" height="15.86" id="rect30"/><rect x="268.42999" y="221.38" transform="matrix(-0.8436,-0.537,0.537,-0.8436,375.6831,563.5132)" class="st4" width="2.95" height="11.32" id="rect31"/><rect x="202.09" y="216.92999" transform="matrix(0.8436,-0.537,0.537,0.8436,-88.9036,144.4763)" class="st4" width="2.95" height="15.86" id="rect32"/><rect x="205.32001" y="214.88" transform="matrix(0.8436,-0.537,0.537,0.8436,-87.2965,145.8874)" class="st4" width="2.95" height="15.86" id="rect33"/><rect x="198.92999" y="221.21001" transform="matrix(0.8436,-0.537,0.537,0.8436,-90.4779,143.094)" class="st4" width="2.95" height="11.32" id="rect34"/></g></g></g><style type="text/css" id="style1">.st0{fill:#040505;}	.st1{fill:#EA4047;}	.st2{fill:url(#SVGID_1_);}	.st3{fill:none;stroke:#EA3F46;stroke-width:3.3792;stroke-miterlimit:10;}	.st4{fill:#EA3F46;}</style></svg>